<svg width="82" height="15" viewBox="0 0 82 15" fill="none" xmlns="http://www.w3.org/2000/svg">
<g clip-path="url(#clip0_10063_11488)">
<path d="M32.7105 10.3374C32.1316 10.7457 31.377 10.8542 30.4571 10.8542C29.5371 10.8542 28.7619 10.7353 28.1934 10.3374C27.5421 9.88772 27.3096 9.14348 27.3096 8.25453C27.3096 7.36558 27.5421 6.61101 28.1934 6.16136C28.7619 5.75823 29.5164 5.64453 30.4571 5.64453C31.3977 5.64453 32.1316 5.7634 32.7105 6.16136C33.3617 6.61101 33.5839 7.36558 33.5839 8.2442C33.5839 9.12281 33.3513 9.88772 32.7105 10.3374ZM30.4571 6.68336C29.2115 6.68336 28.6585 7.09166 28.6585 8.21835C28.6585 9.34505 29.196 9.82053 30.4571 9.82053C31.7181 9.82053 32.235 9.4174 32.235 8.29588C32.235 7.17435 31.7026 6.68336 30.4571 6.68336Z" fill="#141414" fill-opacity="0.7"/>
<path d="M36.9535 10.8592C36.3229 10.8592 35.7441 10.6731 35.4288 10.1563C35.1962 9.80484 35.0825 9.32419 35.0825 8.66264V6.90541C35.0825 6.85373 35.0412 6.81755 34.9947 6.81755H34.1367V5.78905H34.9947C35.0463 5.78905 35.0825 5.74771 35.0825 5.70119V4.29541H36.3849V5.70119C36.3849 5.75288 36.4263 5.78905 36.4728 5.78905H38.2352V6.81755H36.4728C36.4211 6.81755 36.3849 6.8589 36.3849 6.90541V8.39906C36.3849 8.78151 36.4108 9.10195 36.5141 9.33969C36.6537 9.67046 36.9586 9.79967 37.3721 9.79967C37.677 9.79967 38.0543 9.75316 38.3127 9.70147V10.6886C37.8837 10.7765 37.3928 10.8643 36.9535 10.8643V10.8592Z" fill="#141414" fill-opacity="0.7"/>
<path d="M41.713 10.8592C41.0824 10.8592 40.5036 10.6731 40.1883 10.1563C39.9557 9.80484 39.842 9.32419 39.842 8.66264V6.90541C39.842 6.85373 39.8007 6.81755 39.7542 6.81755H38.8962V5.78905H39.7542C39.8059 5.78905 39.842 5.74771 39.842 5.70119V4.29541H41.1445V5.70119C41.1445 5.75288 41.1858 5.78905 41.2323 5.78905H42.9947V6.81755H41.2323C41.1806 6.81755 41.1445 6.8589 41.1445 6.90541V8.39906C41.1445 8.78151 41.1703 9.10195 41.2737 9.33969C41.4132 9.67046 41.7181 9.79967 42.1316 9.79967C42.4365 9.79967 42.8138 9.75316 43.0722 9.70147V10.6886C42.6433 10.7765 42.1523 10.8643 41.713 10.8643V10.8592Z" fill="#141414" fill-opacity="0.7"/>
<path d="M46.4527 10.8596C45.6774 10.8596 44.9797 10.7614 44.4577 10.3117C43.8995 9.82074 43.7031 9.092 43.7031 8.24957C43.7031 7.49499 43.9357 6.65772 44.5869 6.16673C45.1658 5.73776 45.8997 5.6499 46.6439 5.6499C47.3158 5.6499 48.1065 5.72743 48.6854 6.14606C49.4038 6.6784 49.4968 7.48466 49.5123 8.44079C49.5123 8.51832 49.4503 8.58034 49.3779 8.58034H45.1916C45.1089 8.58034 45.0469 8.6527 45.0572 8.73539C45.1296 9.4021 45.5482 9.8259 46.7783 9.8259C47.6 9.8259 48.5097 9.6967 49.2849 9.57266V10.5391C48.3805 10.6942 47.3933 10.8596 46.4527 10.8596ZM46.6439 6.52852C45.6361 6.52852 45.2019 6.87996 45.0779 7.53117C45.0624 7.61386 45.1244 7.69656 45.2123 7.69656H48.0704C48.153 7.69656 48.2151 7.6242 48.2047 7.54151C48.1169 6.84895 47.6621 6.53369 46.6439 6.53369V6.52852Z" fill="#141414" fill-opacity="0.7"/>
<path d="M55.3003 10.7198L55.2693 10.5078C55.2589 10.4562 55.2073 10.42 55.1556 10.4355C54.432 10.6422 53.5069 10.8593 52.7781 10.8593C52.1993 10.8593 51.5791 10.7611 51.1036 10.3425C50.5351 9.85147 50.3594 9.08139 50.3594 8.25963C50.3594 7.29315 50.6953 6.52824 51.4137 6.09927C51.9822 5.74783 52.7006 5.64963 53.4087 5.64963C53.9203 5.64963 54.4475 5.71682 54.9643 5.84602C55.0212 5.86153 55.0781 5.82018 55.0781 5.75816V3.70117H56.3908V10.7198H55.3106H55.3003ZM55.0677 7.04507C55.0677 6.98822 55.0315 6.93654 54.9799 6.91587C54.5457 6.77115 54.0599 6.69363 53.5689 6.69363C52.2562 6.69363 51.7083 7.16395 51.7083 8.22862C51.7083 9.29329 52.2303 9.7326 53.1141 9.7326C53.6671 9.7326 54.3442 9.59306 54.9643 9.45351C55.0264 9.43801 55.0677 9.38632 55.0677 9.3243V7.04507Z" fill="#141414" fill-opacity="0.7"/>
<path d="M22.2132 3.99609H19.5877C19.4172 3.99609 19.2725 4.13564 19.2725 4.31136V10.4203C19.2725 10.5909 19.412 10.7356 19.5877 10.7356H22.2132C23.4381 10.7356 24.4976 10.7356 25.2315 10.3169C26.012 9.8673 26.3789 8.93184 26.3789 7.37101C26.3789 4.00126 24.7199 4.00126 22.2132 4.00126V3.99609ZM22.6784 9.47968H20.9935C20.8643 9.47968 20.7558 9.37115 20.7558 9.24194V5.4794C20.7558 5.35019 20.8643 5.24166 20.9935 5.24166H22.6784C24.4253 5.24166 24.7974 5.42255 24.7974 7.36067C24.7974 9.29879 24.4253 9.47968 22.6784 9.47968Z" fill="#141414" fill-opacity="0.7"/>
<path d="M61.9265 10.5288C61.3942 10.7924 60.6758 10.8544 60.0298 10.8544C59.2649 10.8544 58.4844 10.8131 57.6265 10.7562V9.84144C58.4483 9.9293 59.301 9.98099 59.9729 9.98099C60.5259 9.98099 60.9807 9.93964 61.3115 9.85178C61.8335 9.69673 61.9679 9.34012 61.9679 8.92665C61.9679 8.46667 61.8077 8.18241 61.3063 8.01186C60.8309 7.86714 60.3812 7.79479 59.7817 7.68625C58.3397 7.43301 57.6213 7.01954 57.6213 5.79982C57.6213 5.14344 57.8384 4.50257 58.5671 4.15112C59.0891 3.89787 59.8024 3.84619 60.3709 3.84619C61.0428 3.84619 61.7457 3.88754 62.5054 3.95473V4.82817C61.756 4.74031 60.9911 4.68863 60.3554 4.68863C59.9264 4.68863 59.5026 4.72997 59.1873 4.81784C58.6808 4.97289 58.5516 5.27782 58.5516 5.68094C58.5516 6.12025 58.7015 6.39934 59.1873 6.55439C59.6266 6.69394 60.1125 6.77146 60.6551 6.85932C62.1333 7.10223 62.9085 7.53637 62.9085 8.82328C62.9085 9.50033 62.6863 10.1567 61.9369 10.5237L61.9265 10.5288Z" fill="#141414" fill-opacity="0.7"/>
<path d="M64.971 10.7147H64.082V5.7583H64.9813V10.7147H64.971Z" fill="#141414" fill-opacity="0.7"/>
<path d="M70.743 12.1101C70.1797 12.5907 69.3114 12.6682 68.2726 12.6682C67.6575 12.6682 67.027 12.6269 66.4326 12.5804V11.8051C66.9856 11.862 67.6937 11.893 68.2829 11.893C69.0116 11.893 69.6008 11.862 69.9936 11.5777C70.3761 11.3245 70.5001 10.9472 70.5001 10.3993V10.2701C70.5001 10.2185 70.4536 10.1823 70.4071 10.1978C69.7404 10.3683 68.9083 10.5389 68.2777 10.5389C67.7247 10.5389 67.1924 10.451 66.7324 10.0479C66.2104 9.59826 66.0037 8.86953 66.0037 8.08394C66.0037 7.22083 66.2931 6.46626 66.9856 6.04245C67.5076 5.73752 68.1847 5.61865 68.8256 5.61865C69.4664 5.61865 70.1073 5.72719 70.7533 5.95459L70.7792 5.7582H71.3942V10.3632C71.3942 11.1281 71.2443 11.6863 70.7378 12.1101H70.743ZM70.5001 6.73501C70.5001 6.68333 70.4691 6.63681 70.4226 6.62131C69.9523 6.46109 69.4458 6.38356 68.9496 6.38356C67.5645 6.38356 66.9391 6.88489 66.9391 8.0736C66.9391 9.26232 67.4921 9.73264 68.4845 9.73264C69.0633 9.73264 69.7404 9.58792 70.4122 9.43804C70.4639 9.4277 70.5053 9.37602 70.5053 9.32434V6.73501H70.5001Z" fill="#141414" fill-opacity="0.7"/>
<path d="M77.1016 10.7145V7.77893C77.1016 6.7556 76.5485 6.43516 75.7009 6.43516C75.0187 6.43516 74.2641 6.59538 73.5509 6.76594C73.4941 6.78144 73.4579 6.82796 73.4579 6.88998V10.7197H72.5586V5.76328H73.2873L73.3338 6.06821C74.1401 5.86148 75.1117 5.62891 75.8973 5.62891C76.4865 5.62891 77.055 5.7271 77.4943 6.14057C77.8871 6.51269 78.0008 6.99334 78.0008 7.65489V10.73H77.1016V10.7145Z" fill="#141414" fill-opacity="0.7"/>
<path d="M64.5262 4.71938C64.8173 4.71938 65.0534 4.48335 65.0534 4.19221C65.0534 3.90106 64.8173 3.66504 64.5262 3.66504C64.235 3.66504 63.999 3.90106 63.999 4.19221C63.999 4.48335 64.235 4.71938 64.5262 4.71938Z" fill="#141414" fill-opacity="0.7"/>
<path d="M13.3854 3.76329L12.7032 0.667468C12.6773 0.543428 12.5636 0.455566 12.4396 0.455566H6.39784C6.26863 0.455566 6.16009 0.543428 6.13425 0.667468L5.45203 3.76329C5.26081 4.64191 5.36417 5.56187 5.74663 6.37329L8.63572 12.4926C8.75976 12.7562 9.15255 12.6683 9.15255 12.3789V6.31127C8.60988 6.18723 8.20675 5.70141 8.20675 5.12256C8.20675 4.45068 8.75459 3.90284 9.42647 3.90284C10.0984 3.90284 10.6462 4.45068 10.6462 5.12256C10.6462 5.70141 10.2431 6.18723 9.70039 6.31127V12.3789C9.70039 12.6683 10.0932 12.7562 10.2172 12.4926L13.1063 6.37329C13.4888 5.56187 13.5921 4.64191 13.4009 3.76329H13.3854Z" fill="#141414" fill-opacity="0.7"/>
<path d="M14.5128 13.7847H5.9489C5.768 13.7847 5.62329 13.9294 5.62329 14.1103C5.62329 14.2912 5.768 14.4359 5.9489 14.4359H14.5128C14.6937 14.4359 14.8384 14.2912 14.8384 14.1103C14.8384 13.9294 14.6937 13.7847 14.5128 13.7847Z" fill="#141414" fill-opacity="0.7"/>
<path d="M4.43414 13.6763C4.1964 13.6763 4 13.8727 4 14.1104C4 14.3482 4.1964 14.5445 4.43414 14.5445C4.67188 14.5445 4.86828 14.3482 4.86828 14.1104C4.86828 13.8727 4.67188 13.6763 4.43414 13.6763Z" fill="#141414" fill-opacity="0.7"/>
</g>
<defs>
<clipPath id="clip0_10063_11488">
<rect width="74" height="14.0888" fill="#141414" transform="translate(4 0.455566)"/>
</clipPath>
</defs>
</svg>
